<svg width="24" height="24" viewBox="0 0 24 24" fill="none" xmlns="http://www.w3.org/2000/svg">
<g clip-path="url(#clip0_43_11)">
<path d="M12.0765 2.9985H12.21C13.443 3.003 19.6904 3.048 21.3749 3.501C21.8842 3.63926 22.3482 3.90874 22.7207 4.28251C23.0931 4.65629 23.361 5.12127 23.4974 5.631C23.6489 6.20099 23.7554 6.95549 23.8274 7.73399L23.8424 7.88999L23.8754 8.27999L23.8874 8.43599C23.9849 9.80698 23.9969 11.091 23.9984 11.3715V11.484C23.9969 11.775 23.9834 13.146 23.8754 14.574L23.8634 14.7315L23.8499 14.8875C23.7749 15.7455 23.6639 16.5975 23.4974 17.2245C23.3614 17.7344 23.0937 18.1996 22.7212 18.5734C22.3486 18.9473 21.8844 19.2166 21.3749 19.3544C19.6349 19.8224 13.0215 19.8554 12.105 19.8569H11.892C11.4285 19.8569 9.51147 19.8479 7.50147 19.7789L7.24647 19.7699L7.11597 19.7639L6.85948 19.7534L6.60298 19.7429C4.93798 19.6694 3.35249 19.5509 2.62199 19.3529C2.11273 19.2152 1.64859 18.9461 1.27608 18.5726C0.903572 18.199 0.635768 17.7341 0.499498 17.2245C0.332999 16.599 0.221999 15.7455 0.146999 14.8875L0.135 14.73L0.123 14.574C0.0489712 13.5576 0.00794977 12.539 0 11.52L0 11.3355C0.00299999 11.013 0.015 9.89848 0.0959997 8.66848L0.1065 8.51399L0.111 8.43599L0.123 8.27999L0.155999 7.88999L0.170999 7.73399C0.242999 6.95549 0.349499 6.19949 0.500998 5.631C0.637038 5.12107 0.90474 4.65586 1.27727 4.28202C1.64979 3.90818 2.11405 3.63884 2.62349 3.501C3.35399 3.306 4.93948 3.186 6.60448 3.111L6.85948 3.1005L7.11748 3.0915L7.24647 3.087L7.50297 3.0765C8.93053 3.03057 10.3587 3.00506 11.787 3H12.0765V2.9985ZM9.59997 7.81349V15.0405L15.8354 11.4285L9.59997 7.81349Z" fill="white"/>
</g>
<defs>
<clipPath id="clip0_43_11">
<rect width="23.9999" height="23.9999" fill="white"/>
</clipPath>
</defs>
</svg>
